<svg width="19" height="21" viewBox="0 0 19 21" fill="none" xmlns="http://www.w3.org/2000/svg">
<path d="M12.0698 0.00976562H6.06982V2.00977H12.0698V0.00976562ZM8.06982 13.0098H10.0698V7.00977H8.06982V13.0098ZM16.0998 6.38977L17.5198 4.96977C17.0898 4.45977 16.6198 3.97977 16.1098 3.55977L14.6898 4.97977C13.1398 3.73977 11.1898 2.99977 9.06982 2.99977C4.09982 2.99977 0.0698242 7.02977 0.0698242 11.9998C0.0698242 16.9698 4.08982 20.9998 9.06982 20.9998C14.0498 20.9998 18.0698 16.9698 18.0698 11.9998C18.0698 9.88977 17.3298 7.93977 16.0998 6.38977ZM9.06982 19.0098C5.19982 19.0098 2.06982 15.8798 2.06982 12.0098C2.06982 8.13977 5.19982 5.00977 9.06982 5.00977C12.9398 5.00977 16.0698 8.13977 16.0698 12.0098C16.0698 15.8798 12.9398 19.0098 9.06982 19.0098Z" fill="#01B574"/>
</svg>
