<svg width="56" height="56" viewBox="0 0 56 56" fill="none" xmlns="http://www.w3.org/2000/svg">
<circle cx="28" cy="28" r="28" fill="#F4F7FE"/>
<g clip-path="url(#clip0_3_3580)">
<path d="M31.2501 16.083H19.3334C18.1417 16.083 17.1667 17.058 17.1667 18.2497V32.333C17.1667 32.9288 17.6542 33.4163 18.2501 33.4163C18.8459 33.4163 19.3334 32.9288 19.3334 32.333V19.333C19.3334 18.7372 19.8209 18.2497 20.4167 18.2497H31.2501C31.8459 18.2497 32.3334 17.7622 32.3334 17.1663C32.3334 16.5705 31.8459 16.083 31.2501 16.083ZM31.8892 21.0555L37.1217 26.288C37.5226 26.6888 37.7501 27.2413 37.7501 27.8155V37.7497C37.7501 38.9413 36.7751 39.9163 35.5834 39.9163H23.6559C22.4642 39.9163 21.5001 38.9413 21.5001 37.7497L21.5109 22.583C21.5109 21.3913 22.4751 20.4163 23.6667 20.4163H30.3509C30.9251 20.4163 31.4776 20.6438 31.8892 21.0555ZM31.2501 27.9997H36.1251L30.1667 22.0413V26.9163C30.1667 27.5122 30.6542 27.9997 31.2501 27.9997Z" fill="#4318FF"/>
</g>
<defs>
<clipPath id="clip0_3_3580">
<rect width="26" height="26" fill="white" transform="translate(15 15)"/>
</clipPath>
</defs>
</svg>
