<svg width="21" height="24" viewBox="0 0 21 24" fill="none" xmlns="http://www.w3.org/2000/svg">
<path d="M14.2501 0.0830078H2.33341C1.14175 0.0830078 0.166748 1.05801 0.166748 2.24967V16.333C0.166748 16.9288 0.654248 17.4163 1.25008 17.4163C1.84591 17.4163 2.33341 16.9288 2.33341 16.333V3.33301C2.33341 2.73717 2.82091 2.24967 3.41675 2.24967H14.2501C14.8459 2.24967 15.3334 1.76217 15.3334 1.16634C15.3334 0.570508 14.8459 0.0830078 14.2501 0.0830078ZM14.8892 5.05551L20.1217 10.288C20.5226 10.6888 20.7501 11.2413 20.7501 11.8155V21.7497C20.7501 22.9413 19.7751 23.9163 18.5834 23.9163H6.65591C5.46425 23.9163 4.50008 22.9413 4.50008 21.7497L4.51091 6.58301C4.51091 5.39134 5.47508 4.41634 6.66675 4.41634H13.3509C13.9251 4.41634 14.4776 4.64384 14.8892 5.05551ZM14.2501 11.9997H19.1251L13.1667 6.04134V10.9163C13.1667 11.5122 13.6542 11.9997 14.2501 11.9997Z" fill="#4318FF"/>
</svg>
