<svg width="20" height="20" viewBox="0 0 20 20" fill="none" xmlns="http://www.w3.org/2000/svg">
<path d="M11.0498 7.7898L7.9998 5.4998V14.4998L11.0498 12.2098L13.9998 9.9998L11.0498 7.7898ZM11.0498 7.7898L7.9998 5.4998V14.4998L11.0498 12.2098L13.9998 9.9998L11.0498 7.7898ZM11.0498 7.7898L7.9998 5.4998V14.4998L11.0498 12.2098L13.9998 9.9998L11.0498 7.7898ZM8.9998 2.0698V0.0498047C6.9898 0.249805 5.1598 1.0498 3.6798 2.2598L5.0998 3.6898C6.20981 2.8298 7.5398 2.2498 8.9998 2.0698ZM3.6898 5.0998L2.2598 3.6798C1.0498 5.1598 0.249805 6.9898 0.0498047 8.9998H2.0698C2.2498 7.5398 2.8298 6.20981 3.6898 5.0998ZM2.0698 10.9998H0.0498047C0.249805 13.0098 1.0498 14.8398 2.2598 16.3198L3.6898 14.8898C2.8298 13.7898 2.2498 12.4598 2.0698 10.9998ZM3.6798 17.7398C5.1598 18.9498 6.9998 19.7498 8.9998 19.9498V17.9298C7.5398 17.7498 6.20981 17.1698 5.0998 16.3098L3.6798 17.7398ZM19.9998 9.9998C19.9998 15.1598 16.0798 19.4198 11.0498 19.9498V17.9298C14.9698 17.4098 17.9998 14.0498 17.9998 9.9998C17.9998 5.9498 14.9698 2.5898 11.0498 2.0698V0.0498047C16.0798 0.579805 19.9998 4.8398 19.9998 9.9998Z" fill="#EE5D50"/>
</svg>
